<svg xmlns="http://www.w3.org/2000/svg" class="kolokol" width="26" height="26" viewBox="0 0 26 26">
  <defs>
    <style>
      .cls-1 {
        fill: #fff;
        fill-rule: evenodd;
      }
    </style>
  </defs>
  <path id="Forma_1" data-name="Forma 1" class="cls-1" d="M21.877,16.176v-5.24A9.219,9.219,0,0,0,14.9,2.048,2.165,2.165,0,0,0,12.717.011a2.1,2.1,0,0,0-2.183,1.98,9.264,9.264,0,0,0-6.945,8.945V16.01c0,2.48-1.638,2.906-3.581,4.926H25.429C23.487,18.916,21.877,18.657,21.877,16.176Zm-9.159,9.813a4.928,4.928,0,0,0,4.6-4.042H8.115A4.929,4.929,0,0,0,12.717,25.988Z"/>
</svg>
