<svg xmlns="http://www.w3.org/2000/svg" width="26" height="26" viewBox="0 0 26 26">
  <metadata><?xpacket begin="﻿" id="W5M0MpCehiHzreSzNTczkc9d"?>
<x:xmpmeta xmlns:x="adobe:ns:meta/" x:xmptk="Adobe XMP Core 5.6-c142 79.160924, 2017/07/13-01:06:39        ">
   <rdf:RDF xmlns:rdf="http://www.w3.org/1999/02/22-rdf-syntax-ns#">
      <rdf:Description rdf:about=""/>
   </rdf:RDF>
</x:xmpmeta>
                                                                                                    
                                                                                                    
                                                                                                    
                                                                                                    
                                                                                                    
                                                                                                    
                                                                                                    
                                                                                                    
                                                                                                    
                                                                                                    
                                                                                                    
                                                                                                    
                                                                                                    
                                                                                                    
                                                                                                    
                                                                                                    
                                                                                                    
                                                                                                    
                                                                                                    
                                                                                                    
                           
<?xpacket end="w"?></metadata>
<defs>
    <style>
      .cls-1 {
        fill: #fff;
        fill-rule: evenodd;
      }
    </style>
  </defs>
  <path id="Forma_1" data-name="Forma 1" class="cls-1" d="M23.818,25.9l2.084-2.15a0.309,0.309,0,0,0,0-.429l-5.243-5.412a12.241,12.241,0,0,1-1.485,1.867c-0.286.295-.587,0.575-0.9,0.836L23.4,25.9A0.288,0.288,0,0,0,23.818,25.9ZM10.742,0A10.917,10.917,0,0,0,0,11.082,10.917,10.917,0,0,0,10.742,22.165a10.5,10.5,0,0,0,6.7-2.414,11.022,11.022,0,0,0,2.369-2.715,11.3,11.3,0,0,0,1.677-5.95A10.915,10.915,0,0,0,10.742,0Z"/>
</svg>
